HIERARCHY
ROOT Hips
{
	OFFSET 0.327225 85.456291 8.060652
	CHANNELS 6 Xposition Yposition Zposition Zrotation Yrotation Xrotation 
	JOINT Spine
	{
		OFFSET 0.000000 8.814246 -2.080107
		CHANNELS 3 Zrotation Yrotation Xrotation
		JOINT Spine1
		{
			OFFSET -0.000000 8.844141 0.000000
			CHANNELS 3 Zrotation Yrotation Xrotation
			JOINT Spine2
			{
				OFFSET 0.000000 11.682268 0.000000
				CHANNELS 3 Zrotation Yrotation Xrotation
				JOINT Spine3
				{
					OFFSET 0.000000 11.746700 0.000000
					CHANNELS 3 Zrotation Yrotation Xrotation
					JOINT Neck
					{
						OFFSET 0.000000 17.658264 0.000000
						CHANNELS 3 Zrotation Yrotation Xrotation
						JOINT Neck1
						{
							OFFSET 0.000000 5.101515 0.000000
							CHANNELS 3 Zrotation Yrotation Xrotation
							JOINT Head
							{
								OFFSET -0.000000 5.101515 -0.000000
								CHANNELS 3 Zrotation Yrotation Xrotation
								JOINT HeadEnd
								{
									OFFSET 0.000000 11.655085 0.000000
									CHANNELS 3 Zrotation Yrotation Xrotation
									End Site
									{
										OFFSET 0.000000 0.000000 0.000000
									}
								}
							}
						}
					}
					JOINT RightShoulder
					{
						OFFSET -2.625389 11.175210 -0.000000
						CHANNELS 3 Zrotation Yrotation Xrotation
						JOINT RightArm
						{
							OFFSET 0.000000 10.434715 0.000000
							CHANNELS 3 Zrotation Yrotation Xrotation
							JOINT RightForeArm
							{
								OFFSET -0.000000 29.628420 -0.000000
								CHANNELS 3 Zrotation Yrotation Xrotation
								JOINT RightHand
								{
									OFFSET 0.000000 22.857611 -0.000000
									CHANNELS 3 Zrotation Yrotation Xrotation
									JOINT RightHandThumb1
									{
										OFFSET -2.867323 3.959563 2.944291
										CHANNELS 3 Zrotation Yrotation Xrotation
										JOINT RightHandThumb2
										{
											OFFSET -0.000000 3.350399 0.000000
											CHANNELS 3 Zrotation Yrotation Xrotation
											JOINT RightHandThumb3
											{
												OFFSET -0.000000 3.756509 0.000000
												CHANNELS 3 Zrotation Yrotation Xrotation
												JOINT RightHandThumb4
												{
													OFFSET -0.000000 3.147345 0.000000
													CHANNELS 3 Zrotation Yrotation Xrotation
													End Site
													{
														OFFSET 0.000000 0.000000 0.000000
													}
												}
											}
										}
									}
									JOINT RightHandIndex1
									{
										OFFSET -0.086752 10.030893 2.345280
										CHANNELS 3 Zrotation Yrotation Xrotation
										JOINT RightHandIndex2
										{
											OFFSET -0.000000 4.061090 -0.000000
											CHANNELS 3 Zrotation Yrotation Xrotation
											JOINT RightHandIndex3
											{
												OFFSET 0.000000 3.248873 -0.000000
												CHANNELS 3 Zrotation Yrotation Xrotation
												JOINT RightHandIndex4
												{
													OFFSET 0.000000 2.639709 -0.000000
													CHANNELS 3 Zrotation Yrotation Xrotation
													End Site
													{
														OFFSET 0.000000 0.000000 0.000000
													}
												}
											}
										}
									}
									JOINT RightHandMiddle1
									{
										OFFSET 0.104102 9.502952 0.006768
										CHANNELS 3 Zrotation Yrotation Xrotation
										JOINT RightHandMiddle2
										{
											OFFSET -0.000000 4.568727 -0.000000
											CHANNELS 3 Zrotation Yrotation Xrotation
											JOINT RightHandMiddle3
											{
												OFFSET -0.000000 3.654981 -0.000000
												CHANNELS 3 Zrotation Yrotation Xrotation
												JOINT RightHandMiddle4
												{
													OFFSET -0.000000 2.741236 -0.000000
													CHANNELS 3 Zrotation Yrotation Xrotation
													End Site
													{
														OFFSET 0.000000 0.000000 0.000000
													}
												}
											}
										}
									}
									JOINT RightHandRing1
									{
										OFFSET 0.086752 8.921708 -2.267442
										CHANNELS 3 Zrotation Yrotation Xrotation
										JOINT RightHandRing2
										{
											OFFSET -0.000000 4.061090 0.000000
											CHANNELS 3 Zrotation Yrotation Xrotation
											JOINT RightHandRing3
											{
												OFFSET 0.000000 3.654981 -0.000000
												CHANNELS 3 Zrotation Yrotation Xrotation
												JOINT RightHandRing4
												{
													OFFSET 0.000000 2.741236 -0.000000
													CHANNELS 3 Zrotation Yrotation Xrotation
													End Site
													{
														OFFSET 0.000000 0.000000 0.000000
													}
												}
											}
										}
									}
									JOINT RightHandPinky1
									{
										OFFSET -0.173504 7.976997 -4.467199
										CHANNELS 3 Zrotation Yrotation Xrotation
										JOINT RightHandPinky2
										{
											OFFSET -0.000000 3.350399 0.000000
											CHANNELS 3 Zrotation Yrotation Xrotation
											JOINT RightHandPinky3
											{
												OFFSET 0.000000 2.842763 -0.000000
												CHANNELS 3 Zrotation Yrotation Xrotation
												JOINT RightHandPinky4
												{
													OFFSET -0.000000 2.639709 0.000000
													CHANNELS 3 Zrotation Yrotation Xrotation
													End Site
													{
														OFFSET 0.000000 0.000000 0.000000
													}
												}
											}
										}
									}
									JOINT RightForeArmEnd
									{
										OFFSET 0.000000 0.000000 0.000000
										CHANNELS 3 Zrotation Yrotation Xrotation
										End Site
										{
											OFFSET 0.000000 0.000000 0.000000
										}
									}
								}
								JOINT RightArmEnd
								{
									OFFSET 0.000000 0.000000 0.000000
									CHANNELS 3 Zrotation Yrotation Xrotation
									End Site
									{
										OFFSET 0.000000 0.000000 0.000000
									}
								}
							}
						}
					}
					JOINT LeftShoulder
					{
						OFFSET 2.625389 11.175210 0.000000
						CHANNELS 3 Zrotation Yrotation Xrotation
						JOINT LeftArm
						{
							OFFSET -0.000000 10.813635 0.000000
							CHANNELS 3 Zrotation Yrotation Xrotation
							JOINT LeftForeArm
							{
								OFFSET 0.000000 28.724781 -0.000000
								CHANNELS 3 Zrotation Yrotation Xrotation
								JOINT LeftHand
								{
									OFFSET 0.644384 25.716167 -0.328871
									CHANNELS 3 Zrotation Yrotation Xrotation
									JOINT LeftHandThumb1
									{
										OFFSET 2.867323 3.959563 2.944291
										CHANNELS 3 Zrotation Yrotation Xrotation
										JOINT LeftHandThumb2
										{
											OFFSET 0.000000 3.350399 -0.000000
											CHANNELS 3 Zrotation Yrotation Xrotation
											JOINT LeftHandThumb3
											{
												OFFSET 0.000000 3.756509 0.000000
												CHANNELS 3 Zrotation Yrotation Xrotation
												JOINT LeftHandThumb4
												{
													OFFSET 0.000000 3.100000 0.000000
													CHANNELS 3 Zrotation Yrotation Xrotation
													End Site
													{
														OFFSET 0.000000 0.000000 0.000000
													}
												}
											}
										}
									}
									JOINT LeftHandIndex1
									{
										OFFSET 0.086752 10.030893 2.345280
										CHANNELS 3 Zrotation Yrotation Xrotation
										JOINT LeftHandIndex2
										{
											OFFSET 0.000000 4.061090 0.000000
											CHANNELS 3 Zrotation Yrotation Xrotation
											JOINT LeftHandIndex3
											{
												OFFSET -0.000000 3.248873 -0.000000
												CHANNELS 3 Zrotation Yrotation Xrotation
												JOINT LeftHandIndex4
												{
													OFFSET -0.000000 2.639709 -0.000000
													CHANNELS 3 Zrotation Yrotation Xrotation
													End Site
													{
														OFFSET 0.000000 0.000000 0.000000
													}
												}
											}
										}
									}
									JOINT LeftHandMiddle1
									{
										OFFSET -0.104102 9.502952 0.006768
										CHANNELS 3 Zrotation Yrotation Xrotation
										JOINT LeftHandMiddle2
										{
											OFFSET 0.000000 4.568727 0.000000
											CHANNELS 3 Zrotation Yrotation Xrotation
											JOINT LeftHandMiddle3
											{
												OFFSET -0.000000 3.654981 -0.000000
												CHANNELS 3 Zrotation Yrotation Xrotation
												JOINT LeftHandMiddle4
												{
													OFFSET -0.000000 2.741236 -0.000000
													CHANNELS 3 Zrotation Yrotation Xrotation
													End Site
													{
														OFFSET 0.000000 0.000000 0.000000
													}
												}
											}
										}
									}
									JOINT LeftHandRing1
									{
										OFFSET -0.086752 8.921708 -2.267442
										CHANNELS 3 Zrotation Yrotation Xrotation
										JOINT LeftHandRing2
										{
											OFFSET 0.000000 4.061090 0.000000
											CHANNELS 3 Zrotation Yrotation Xrotation
											JOINT LeftHandRing3
											{
												OFFSET -0.000000 3.654981 -0.000000
												CHANNELS 3 Zrotation Yrotation Xrotation
												JOINT LeftHandRing4
												{
													OFFSET -0.000000 2.741236 -0.000000
													CHANNELS 3 Zrotation Yrotation Xrotation
													End Site
													{
														OFFSET 0.000000 0.000000 0.000000
													}
												}
											}
										}
									}
									JOINT LeftHandPinky1
									{
										OFFSET 0.173504 7.976997 -4.467199
										CHANNELS 3 Zrotation Yrotation Xrotation
										JOINT LeftHandPinky2
										{
											OFFSET 0.000000 3.350399 0.000000
											CHANNELS 3 Zrotation Yrotation Xrotation
											JOINT LeftHandPinky3
											{
												OFFSET 0.000000 2.842763 0.000000
												CHANNELS 3 Zrotation Yrotation Xrotation
												JOINT LeftHandPinky4
												{
													OFFSET 0.000000 2.639709 -0.000000
													CHANNELS 3 Zrotation Yrotation Xrotation
													End Site
													{
														OFFSET 0.000000 0.000000 0.000000
													}
												}
											}
										}
									}
									JOINT LeftForeArmEnd
									{
										OFFSET 0.000000 0.000000 0.000000
										CHANNELS 3 Zrotation Yrotation Xrotation
										End Site
										{
											OFFSET 0.000000 0.000000 0.000000
										}
									}
								}
								JOINT LeftArmEnd
								{
									OFFSET 0.000000 0.000000 0.000000
									CHANNELS 3 Zrotation Yrotation Xrotation
									End Site
									{
										OFFSET 0.000000 0.000000 0.000000
									}
								}
							}
						}
					}
				}
			}
		}
	}
	JOINT RightUpLeg
	{
		OFFSET -11.289943 0.000000 -0.000000
		CHANNELS 3 Zrotation Yrotation Xrotation
		JOINT RightLeg
		{
			OFFSET -0.000000 -38.200325 -0.000000
			CHANNELS 3 Zrotation Yrotation Xrotation
			JOINT RightFoot
			{
				OFFSET -0.000000 -39.900856 0.000000
				CHANNELS 3 Zrotation Yrotation Xrotation
				JOINT RightToeBase
				{
					OFFSET 0.000000 -0.000000 15.261641
					CHANNELS 3 Zrotation Yrotation Xrotation
					JOINT RightToeBaseEnd
					{
						OFFSET -0.000000 -0.000000 7.370709
						CHANNELS 3 Zrotation Yrotation Xrotation
						End Site
						{
							OFFSET 0.000000 0.000000 0.000000
						}
					}
				}
				JOINT RightLegEnd
				{
					OFFSET 0.000000 0.000000 0.000000
					CHANNELS 3 Zrotation Yrotation Xrotation
					End Site
					{
						OFFSET 0.000000 0.000000 0.000000
					}
				}
			}
			JOINT RightUpLegEnd
			{
				OFFSET 0.000000 0.000000 0.000000
				CHANNELS 3 Zrotation Yrotation Xrotation
				End Site
				{
					OFFSET 0.000000 0.000000 0.000000
				}
			}
		}
	}
	JOINT LeftUpLeg
	{
		OFFSET 11.315661 -0.000000 0.000000
		CHANNELS 3 Zrotation Yrotation Xrotation
		JOINT LeftLeg
		{
			OFFSET -0.000000 -38.200325 -0.000000
			CHANNELS 3 Zrotation Yrotation Xrotation
			JOINT LeftFoot
			{
				OFFSET -0.000000 -39.900856 0.000000
				CHANNELS 3 Zrotation Yrotation Xrotation
				JOINT LeftToeBase
				{
					OFFSET 0.000000 -0.000000 15.261641
					CHANNELS 3 Zrotation Yrotation Xrotation
					JOINT LeftToeBaseEnd
					{
						OFFSET -0.000000 0.000000 7.539996
						CHANNELS 3 Zrotation Yrotation Xrotation
						End Site
						{
							OFFSET 0.000000 0.000000 0.000000
						}
					}
				}
				JOINT LeftLegEnd
				{
					OFFSET 0.000000 0.000000 0.000000
					CHANNELS 3 Zrotation Yrotation Xrotation
					End Site
					{
						OFFSET 0.000000 0.000000 0.000000
					}
				}
			}
			JOINT LeftUpLegEnd
			{
				OFFSET 0.000000 0.000000 0.000000
				CHANNELS 3 Zrotation Yrotation Xrotation
				End Site
				{
					OFFSET 0.000000 0.000000 0.000000
				}
			}
		}
	}
}
MOTION
Frames: 5
Frame Time: 0.016667
0.327225 85.456291 8.060652 -1.060160 -0.454608 -23.207590 2.322709 -0.297220 12.236113 0.341520 -0.185955 6.095392 -2.927263 -0.107008 18.660194 -3.766547 -0.127707 10.148421 -8.554237 3.011372 10.670642 -1.052736 0.746531 -1.072306 -1.427619 -1.392408 -19.988150 0.000000 0.000000 0.000000 91.634735 -0.442339 15.425826 54.665524 -30.476999 24.470922 -0.226760 15.539892 21.119818 5.921650 20.191023 -2.405218 13.495595 32.597275 68.996590 0.000003 0.000003 0.000009 0.000134 -0.000001 0.000005 0.000000 0.000000 0.000000 13.796139 -10.938026 1.277707 9.837293 0.396116 1.450871 9.837299 -0.105893 1.372970 0.000000 0.000000 0.000000 13.018492 -5.780196 0.547168 9.259837 0.477044 0.562421 9.259580 -0.040827 0.482464 0.000000 0.000000 0.000000 14.759333 1.948519 1.684468 10.371669 -0.929828 -0.808298 10.370477 0.055660 -0.609709 0.000000 0.000000 0.000000 15.656369 10.308870 0.915056 10.776875 -1.765082 -2.455533 10.769448 0.171573 -2.081882 0.000000 0.000000 0.000000 0.000000 0.000000 0.000000 0.000000 0.000000 0.000000 -92.594154 0.517031 10.482300 -55.364445 20.044870 9.159415 -0.966445 -10.157828 39.026314 -1.252406 -30.847612 -11.535672 -13.450125 -32.590797 68.901459 0.011028 0.011022 -0.022262 0.011023 0.011028 -0.022273 0.000000 0.000000 0.000000 -11.776063 -6.462783 0.977572 -8.183229 0.418838 -1.217398 -8.182890 -0.087328 -1.146339 0.000000 0.000000 0.000000 -11.505368 -1.486834 0.105365 -8.159037 0.488683 -0.513053 -8.158793 0.006084 -0.433014 0.000000 0.000000 0.000000 -14.670410 7.057579 0.049814 -10.405230 -0.938801 0.816612 -10.403862 0.035557 0.635699 0.000000 0.000000 0.000000 -17.068953 15.932078 -0.778814 -11.779098 -1.717910 2.681325 -11.773773 0.235106 2.277516 0.000000 0.000000 0.000000 0.000000 0.000000 0.000000 0.000000 0.000000 0.000000 -5.285096 -1.941737 14.891479 -0.561212 -0.964231 30.047485 4.622950 -4.876317 6.481491 -0.907080 1.864290 -16.513636 0.000000 0.000000 0.000000 0.000000 0.000000 0.000000 0.000000 0.000000 0.000000 4.159544 -1.943718 10.882134 0.172503 0.240085 35.792629 -0.279231 6.748767 5.369925 0.530027 -0.512076 -20.503864 0.000000 0.000000 0.000000 0.000000 0.000000 0.000000 0.000000 0.000000 0.000000 
0.237663 85.327141 7.333551 -0.757907 -0.199218 -22.386131 1.318313 -0.198230 11.891403 0.682209 -0.161931 6.996025 -3.029449 0.435707 17.190550 -2.865674 -0.138773 9.064680 -9.273485 4.675894 10.566310 -2.118231 0.942894 -1.864173 -1.391234 -0.274379 -19.138964 0.000000 0.000000 0.000000 92.100456 -0.278871 14.934365 54.849758 -28.103691 22.820717 0.301618 16.890551 19.642736 5.021070 18.267466 -0.547037 -5.669967 0.882457 47.118557 -0.000009 0.000006 12.726208 0.000014 0.000055 9.291354 0.000020 0.000006 -0.000021 14.629542 0.947597 -0.812329 9.271246 0.020470 0.218534 9.345452 0.076165 0.196760 -0.000021 -0.000001 -0.000001 12.723718 0.370835 -2.832348 8.485351 -0.022150 0.062205 8.329207 0.019401 0.065798 0.000014 -0.000041 0.000025 13.262972 -0.469368 -2.751992 9.737505 0.041009 0.004420 9.528020 -0.040651 0.001644 -0.000007 0.000528 0.000001 13.500459 -1.249804 -4.744780 10.290675 -0.033754 0.316378 10.071441 -0.237657 0.196334 -0.000525 0.000009 0.000042 0.000000 0.000000 0.000000 0.000000 0.000000 0.000000 -90.429527 -0.187206 10.499424 -57.791752 20.897932 6.563284 -1.105108 -9.399832 40.063015 0.544892 -29.414738 -6.252526 5.966658 -0.873353 47.104168 0.000017 0.000021 13.172654 -0.000133 -0.000006 9.608958 -0.000237 -0.000016 0.000471 -12.036933 0.923337 -0.381483 -8.896714 -0.057782 -0.211775 -8.882215 0.028021 -0.197483 0.000013 0.000447 0.000016 -12.372943 0.385907 -2.671985 -8.353077 -0.051264 -0.085154 -8.190129 0.002421 -0.066157 0.000575 -0.000042 0.000053 -14.799465 -0.451961 -3.374188 -9.277157 0.084720 0.129133 -9.231323 -0.011357 0.113891 0.000135 -0.000007 -0.000001 -15.491090 -1.303190 -4.955520 -9.794964 0.189165 0.428391 -9.590773 -0.059124 0.391830 0.000497 -0.000012 -0.000050 0.000000 0.000000 0.000000 0.000000 0.000000 0.000000 -6.579129 1.032166 14.034373 -0.419558 -0.859364 26.701077 3.307894 -4.393355 8.005651 -0.912716 1.726943 -17.004761 0.000000 0.000000 0.000000 0.000000 0.000000 0.000000 0.000000 0.000000 0.000000 3.581234 -2.330566 11.103262 0.291934 0.274766 35.540287 -0.209503 7.610229 4.546520 0.333005 -0.876510 -20.020226 0.000000 0.000000 0.000000 0.000000 0.000000 0.000000 0.000000 0.000000 0.000000 
0.227649 85.328217 7.351646 -0.726209 -0.213296 -22.365036 1.335145 -0.192918 11.888825 0.678657 -0.148251 7.020061 -3.001096 0.385666 17.168999 -2.824273 -0.126100 8.974101 -9.301187 4.728861 10.608332 -2.050075 1.040882 -1.952977 -1.414255 -0.306108 -19.166746 0.000000 0.000000 0.000000 92.126709 -0.265286 14.959918 54.863216 -28.269363 22.864813 0.337286 17.067949 19.562454 5.083172 18.332279 -0.916983 -5.685592 0.884058 47.125477 0.000001 0.000013 12.763501 0.000013 0.000054 9.334295 0.000035 0.000013 -0.000040 14.381982 0.998865 -1.294412 9.142347 0.023115 0.194720 9.230485 0.080078 0.172968 -0.000015 0.000005 -0.000009 12.525164 0.392309 -3.231669 8.370658 -0.022940 0.055356 8.216354 0.021372 0.060051 0.000029 -0.000082 0.000021 13.133966 -0.494971 -3.138001 9.601991 0.044752 0.009425 9.401397 -0.041628 0.006484 -0.000024 0.000343 -0.000016 13.461299 -1.319857 -5.041035 10.142129 -0.027628 0.319690 9.921810 -0.245057 0.196402 -0.000492 0.000011 0.000014 0.000000 0.000000 0.000000 0.000000 0.000000 0.000000 -90.546158 -0.190283 10.399997 -57.894775 21.072447 6.660119 -1.159084 -9.356611 39.915966 0.505460 -28.959042 -6.211310 5.997619 -0.881850 47.121593 0.000018 0.000035 13.252099 -0.000150 -0.000001 9.663406 -0.000127 -0.000003 0.000669 -11.825113 0.978879 -0.622287 -8.852741 -0.054719 -0.185586 -8.855350 0.034141 -0.179853 0.000016 0.000410 0.000014 -12.155117 0.409475 -2.856586 -8.298612 -0.052228 -0.077698 -8.156800 0.003319 -0.060365 0.000442 -0.000036 0.000010 -14.653531 -0.477986 -3.514210 -9.227745 0.087754 0.123219 -9.165853 -0.012260 0.108905 0.000218 0.000010 0.000004 -15.385490 -1.378630 -5.019660 -9.724457 0.195128 0.415298 -9.525761 -0.062569 0.377739 0.000587 0.000005 -0.000052 0.000000 0.000000 0.000000 0.000000 0.000000 0.000000 -6.516857 1.065577 13.924351 -0.419134 -0.855045 26.725132 3.195892 -4.280480 8.094709 -0.919549 1.699164 -17.037588 0.000000 0.000000 0.000000 0.000000 0.000000 0.000000 0.000000 0.000000 0.000000 3.530513 -2.269839 11.148233 0.292735 0.268590 35.504868 -0.158048 7.667210 4.525815 0.324251 -0.853915 -20.073702 0.000000 0.000000 0.000000 0.000000 0.000000 0.000000 0.000000 0.000000 0.000000 
0.211064 85.335579 7.381973 -0.707422 -0.235932 -22.347586 1.346086 -0.185501 11.884278 0.695135 -0.143773 6.985240 -2.978744 0.345102 17.167547 -2.786235 -0.126161 8.911385 -9.316945 4.718837 10.752154 -1.997854 1.085366 -1.940555 -1.410800 -0.322441 -19.201353 0.000000 0.000000 0.000000 92.173958 -0.263068 14.948136 54.844376 -28.385824 22.936039 0.339996 17.093369 19.377728 5.109397 18.228170 -1.120044 -5.683939 0.885184 47.127724 0.000004 0.000014 12.779566 0.000010 0.000055 9.352119 0.000035 0.000013 -0.000041 14.260604 1.014930 -1.643878 9.081041 0.025508 0.176991 9.180115 0.082726 0.153921 -0.000014 0.000005 -0.000010 12.449510 0.399237 -3.515233 8.305911 -0.022695 0.050772 8.154543 0.022265 0.055728 0.000029 -0.000098 0.000023 13.046350 -0.503034 -3.387360 9.502718 0.046867 0.010982 9.313874 -0.041286 0.008269 -0.000023 0.000234 -0.000015 13.408873 -1.340583 -5.207532 10.023442 -0.022549 0.305535 9.809075 -0.245326 0.184684 -0.000491 0.000010 0.000000 0.000000 0.000000 0.000000 0.000000 0.000000 0.000000 -90.617027 -0.179347 10.299832 -57.865379 21.187346 6.814734 -1.186831 -9.240973 39.722080 0.304597 -28.542156 -6.219713 6.021753 -0.887756 47.132893 0.000016 0.000036 13.304357 -0.000159 -0.000001 9.702883 -0.000092 -0.000002 0.000849 -11.652879 0.997697 -0.807226 -8.787524 -0.053131 -0.169843 -8.799445 0.036920 -0.168434 0.000014 0.000312 0.000015 -11.978366 0.418008 -2.990574 -8.229425 -0.052548 -0.073645 -8.096943 0.003386 -0.057226 0.000436 -0.000038 -0.000016 -14.512221 -0.486739 -3.610563 -9.163891 0.088751 0.122330 -9.093854 -0.012262 0.107597 0.000231 0.000010 0.000004 -15.279969 -1.402997 -5.050399 -9.657439 0.198181 0.417356 -9.455707 -0.062246 0.376787 0.000631 0.000005 -0.000052 0.000000 0.000000 0.000000 0.000000 0.000000 0.000000 -6.459667 1.087674 13.918602 -0.416539 -0.847611 26.641048 3.098589 -4.248969 8.200391 -0.927456 1.675947 -17.069771 0.000000 0.000000 0.000000 0.000000 0.000000 0.000000 0.000000 0.000000 0.000000 3.494653 -2.213455 11.245317 0.290566 0.264660 35.349129 -0.104402 7.760370 4.560237 0.321509 -0.838318 -20.095329 0.000000 0.000000 0.000000 0.000000 0.000000 0.000000 0.000000 0.000000 0.000000 
0.191011 85.339767 7.406475 -0.707024 -0.257844 -22.322567 1.358927 -0.181742 11.889109 0.712179 -0.143606 6.941829 -2.952563 0.298428 17.159533 -2.752233 -0.135799 8.865250 -9.252797 4.663524 10.849495 -1.958919 1.101192 -1.907354 -1.400745 -0.331445 -19.216612 0.000000 0.000000 0.000000 92.198097 -0.257469 14.914862 54.885464 -28.460413 22.964268 0.331068 17.052504 19.191654 5.239131 17.941099 -1.247378 -5.658372 0.884742 47.124367 0.000005 0.000015 12.750715 0.000010 0.000056 9.330126 0.000035 0.000013 -0.000041 14.255752 1.023333 -1.962565 9.070515 0.027561 0.163774 9.177423 0.085076 0.139397 -0.000013 0.000004 -0.000010 12.483045 0.402481 -3.787021 8.290243 -0.022507 0.047226 8.139231 0.022781 0.052538 0.000027 -0.000106 0.000024 13.051309 -0.507119 -3.626612 9.451408 0.048151 0.011933 9.272997 -0.040905 0.009328 -0.000023 0.000153 -0.000014 13.415543 -1.350957 -5.370517 9.956056 -0.018480 0.293093 9.744198 -0.244603 0.174630 -0.000504 0.000010 -0.000008 0.000000 0.000000 0.000000 0.000000 0.000000 0.000000 -90.642143 -0.175324 10.234221 -57.876869 21.300089 6.870194 -1.181643 -9.130751 39.611641 0.068292 -28.178297 -6.227210 6.033490 -0.892876 47.140511 0.000015 0.000036 13.331991 -0.000167 -0.000001 9.719879 -0.000087 -0.000002 0.000945 -11.590555 1.007800 -0.945353 -8.771674 -0.051754 -0.154886 -8.788140 0.039058 -0.157176 0.000013 0.000226 0.000015 -11.898524 0.422590 -3.101297 -8.205740 -0.052681 -0.069580 -8.077940 0.003347 -0.054178 0.000469 -0.000039 -0.000031 -14.412931 -0.491642 -3.717718 -9.127995 0.089238 0.121236 -9.053960 -0.012228 0.106262 0.000241 0.000011 0.000004 -15.180609 -1.416275 -5.129239 -9.610108 0.199761 0.418113 -9.404552 -0.061910 0.375981 0.000671 0.000004 -0.000054 0.000000 0.000000 0.000000 0.000000 0.000000 0.000000 -6.382072 1.111705 13.923321 -0.412502 -0.837020 26.538216 3.022419 -4.246396 8.280545 -0.932751 1.659390 -17.087086 0.000000 0.000000 0.000000 0.000000 0.000000 0.000000 0.000000 0.000000 0.000000 3.485068 -2.179178 11.300274 0.288862 0.263247 35.244171 -0.074646 7.842140 4.601407 0.317760 -0.827536 -20.111593 0.000000 0.000000 0.000000 0.000000 0.000000 0.000000 0.000000 0.000000 0.000000 
